# xmcd CD database file
#
# Track frame offsets:
#	150
#	19129
#	38558
#	57555
#	69864
#	89579
#	102911
#
# Disc length: 1577 seconds
#
# Revision: 1
# Processed by: cddbd v1.5.2PL0 Copyright (c) Steve Scherf et al.
# Submitted via: CDex 1.60beta1-cs1
#
DISCID=55062707
DTITLE=青木カレン - KAREN's SWINGIN' PARTY!
DYEAR=2008
DGENRE=Jazz
TTITLE0=SING SING SING - WITH A SWING
TTITLE1=SUNDAY MORNING
TTITLE2=LA ISLA BONITA
TTITLE3=IT DON'T MEAN A THING
TTITLE4=ISN'T SHE LOVELY
TTITLE5=OOH SHOOBEE DOOBEE
TTITLE6=IS YOU IS OR IS YOU AIN'T MY BABY
EXTD=YEAR: 2008
EXTT0=
EXTT1=
EXTT2=
EXTT3=
EXTT4=
EXTT5=
EXTT6=
PLAYORDER=
